<?xml version="1.0" ?><!DOCTYPE svg  PUBLIC '-//W3C//DTD SVG 1.1//EN'  'http://www.w3.org/Graphics/SVG/1.1/DTD/svg11.dtd'><svg enable-background="new 0 0 24 24" height="30px" id="Layer_1" version="1.1" viewBox="0 0 24 24" width="30px" xml:space="preserve" xmlns="http://www.w3.org/2000/svg" xmlns:xlink="http://www.w3.org/1999/xlink"><g><path d="M14.2,11.9H9.8c-0.9,0-1.6,0.7-1.6,1.6v0.6c0,0.9,0.7,1.6,1.6,1.6h4.3c0.9,0,1.6-0.7,1.6-1.6v-0.6   C15.8,12.6,15.1,11.9,14.2,11.9z M9.9,14.8c-0.4,0-0.8-0.4-0.8-1s0.3-1,0.8-1c0.4,0,0.8,0.4,0.8,1S10.3,14.8,9.9,14.8z M14.1,14.8   c-0.4,0-0.8-0.4-0.8-1s0.3-1,0.8-1s0.8,0.4,0.8,1S14.5,14.8,14.1,14.8z"/><path d="M19.7,0.5H4.3c-2.1,0-3.8,1.7-3.8,3.8v15.4c0,2.1,1.7,3.8,3.8,3.8h15.4c2.1,0,3.8-1.7,3.8-3.8V4.3   C23.5,2.2,21.8,0.5,19.7,0.5z M20.2,13.9c0,2.9-2.3,5.2-5.2,5.2H9c-2.9,0-5.2-2.3-5.2-5.2v-1.3c0-1.2,0.4-2.3,1.1-3.2   C4.8,9.3,4.8,9.1,4.7,9C4.2,7.7,4.4,6.2,5.2,5.1c0.1-0.1,0.3-0.2,0.5-0.2c1.4,0.2,2.6,1.2,3.1,2.5c0,0,0,0,0,0.1c0.1,0,0.1,0,0.2,0   h6c0.1,0,0.1,0,0.2,0c0,0,0,0,0-0.1c0.5-1.3,1.7-2.2,3.1-2.5c0.2,0,0.4,0,0.5,0.2c0.9,1.1,1.1,2.6,0.5,3.9   c-0.1,0.1-0.1,0.3-0.2,0.4c0.7,0.9,1.1,2,1.1,3.2V13.9z"/></g></svg>